<?xml version="1.0" encoding="UTF-8" standalone="no"?>
<!DOCTYPE svg PUBLIC "-//W3C//DTD SVG 1.1//EN"
 "http://www.w3.org/Graphics/SVG/1.1/DTD/svg11.dtd">
<!-- Generated by graphviz version 2.26.3 (20100126.1600)
 -->
<!-- Title: controllers_diagram Pages: 1 -->
<svg width="461pt" height="473pt"
 viewBox="0.00 0.00 461.00 473.00" xmlns="http://www.w3.org/2000/svg" xmlns:xlink="http://www.w3.org/1999/xlink">
<g id="graph1" class="graph" transform="scale(1 1) rotate(0) translate(4 469)">
<title>controllers_diagram</title>
<polygon fill="white" stroke="white" points="-4,5 -4,-469 458,-469 458,5 -4,5"/>
<!-- _diagram_info -->
<g id="node1" class="node"><title>_diagram_info</title>
<text text-anchor="start" x="209" y="-298.3" font-family="Times Roman,serif" font-size="13.00">Controllers diagram</text>
<text text-anchor="start" x="209" y="-281.3" font-family="Times Roman,serif" font-size="13.00">Date: May 10 2011 &#45; 17:42</text>
<text text-anchor="start" x="209" y="-264.3" font-family="Times Roman,serif" font-size="13.00">Migration version: 20110428125630</text>
<text text-anchor="start" x="209" y="-247.3" font-family="Times Roman,serif" font-size="13.00">Generated by RailRoady 1.0.2</text>
<text text-anchor="start" x="209" y="-230.3" font-family="Times Roman,serif" font-size="13.00">http://railroady.prestonlee.com</text>
</g>
<!-- ApplicationController -->
<g id="node2" class="node"><title>ApplicationController</title>
<polyline fill="none" stroke="black" points="213,-41.5 434,-41.5 "/>
<path fill="none" stroke="black" d="M434,-41.5C440,-41.5 446,-47.5 446,-53.5"/>
<polyline fill="none" stroke="black" points="446,-53.5 446,-167.5 "/>
<path fill="none" stroke="black" d="M446,-167.5C446,-173.5 440,-179.5 434,-179.5"/>
<polyline fill="none" stroke="black" points="434,-179.5 213,-179.5 "/>
<path fill="none" stroke="black" d="M213,-179.5C207,-179.5 201,-173.5 201,-167.5"/>
<polyline fill="none" stroke="black" points="201,-167.5 201,-53.5 "/>
<path fill="none" stroke="black" d="M201,-53.5C201,-47.5 207,-41.5 213,-41.5"/>
<text text-anchor="middle" x="323.5" y="-162.9" font-family="Times Roman,serif" font-size="14.00">ApplicationController</text>
<polyline fill="none" stroke="black" points="201,-153.5 446,-153.5 "/>
<text text-anchor="start" x="209" y="-136.9" font-family="Times Roman,serif" font-size="14.00">_one_time_conditions_valid_52?</text>
<text text-anchor="start" x="209" y="-118.9" font-family="Times Roman,serif" font-size="14.00">current_user</text>
<polyline fill="none" stroke="black" points="201,-109.5 446,-109.5 "/>
<polyline fill="none" stroke="black" points="201,-85.5 446,-85.5 "/>
<text text-anchor="start" x="209" y="-68.9" font-family="Times Roman,serif" font-size="14.00">_layout</text>
<text text-anchor="start" x="209" y="-50.9" font-family="Times Roman,serif" font-size="14.00">_run_process_action_callbacks</text>
</g>
<!-- AttachesController -->
<g id="node3" class="node"><title>AttachesController</title>
<polyline fill="none" stroke="black" points="33,-301.5 158,-301.5 "/>
<path fill="none" stroke="black" d="M158,-301.5C164,-301.5 170,-307.5 170,-313.5"/>
<polyline fill="none" stroke="black" points="170,-313.5 170,-427.5 "/>
<path fill="none" stroke="black" d="M170,-427.5C170,-433.5 164,-439.5 158,-439.5"/>
<polyline fill="none" stroke="black" points="158,-439.5 33,-439.5 "/>
<path fill="none" stroke="black" d="M33,-439.5C27,-439.5 21,-433.5 21,-427.5"/>
<polyline fill="none" stroke="black" points="21,-427.5 21,-313.5 "/>
<path fill="none" stroke="black" d="M21,-313.5C21,-307.5 27,-301.5 33,-301.5"/>
<text text-anchor="middle" x="95.5" y="-422.9" font-family="Times Roman,serif" font-size="14.00">AttachesController</text>
<polyline fill="none" stroke="black" points="21,-413.5 170,-413.5 "/>
<text text-anchor="start" x="29" y="-396.9" font-family="Times Roman,serif" font-size="14.00">edit</text>
<text text-anchor="start" x="29" y="-378.9" font-family="Times Roman,serif" font-size="14.00">raw</text>
<text text-anchor="start" x="29" y="-360.9" font-family="Times Roman,serif" font-size="14.00">show</text>
<polyline fill="none" stroke="black" points="21,-351.5 170,-351.5 "/>
<polyline fill="none" stroke="black" points="21,-327.5 170,-327.5 "/>
<text text-anchor="start" x="29" y="-310.9" font-family="Times Roman,serif" font-size="14.00">_layout</text>
</g>
<!-- LikesController -->
<g id="node4" class="node"><title>LikesController</title>
<polyline fill="none" stroke="black" points="333,-361.5 432,-361.5 "/>
<path fill="none" stroke="black" d="M432,-361.5C438,-361.5 444,-367.5 444,-373.5"/>
<polyline fill="none" stroke="black" points="444,-373.5 444,-451.5 "/>
<path fill="none" stroke="black" d="M444,-451.5C444,-457.5 438,-463.5 432,-463.5"/>
<polyline fill="none" stroke="black" points="432,-463.5 333,-463.5 "/>
<path fill="none" stroke="black" d="M333,-463.5C327,-463.5 321,-457.5 321,-451.5"/>
<polyline fill="none" stroke="black" points="321,-451.5 321,-373.5 "/>
<path fill="none" stroke="black" d="M321,-373.5C321,-367.5 327,-361.5 333,-361.5"/>
<text text-anchor="middle" x="382.5" y="-446.9" font-family="Times Roman,serif" font-size="14.00">LikesController</text>
<polyline fill="none" stroke="black" points="321,-437.5 444,-437.5 "/>
<text text-anchor="start" x="329" y="-420.9" font-family="Times Roman,serif" font-size="14.00">create</text>
<polyline fill="none" stroke="black" points="321,-411.5 444,-411.5 "/>
<polyline fill="none" stroke="black" points="321,-387.5 444,-387.5 "/>
<text text-anchor="start" x="329" y="-370.9" font-family="Times Roman,serif" font-size="14.00">_layout</text>
</g>
<!-- UsersController -->
<g id="node5" class="node"><title>UsersController</title>
<polyline fill="none" stroke="black" points="13,-1.5 155,-1.5 "/>
<path fill="none" stroke="black" d="M155,-1.5C161,-1.5 167,-7.5 167,-13.5"/>
<polyline fill="none" stroke="black" points="167,-13.5 167,-253.5 "/>
<path fill="none" stroke="black" d="M167,-253.5C167,-259.5 161,-265.5 155,-265.5"/>
<polyline fill="none" stroke="black" points="155,-265.5 13,-265.5 "/>
<path fill="none" stroke="black" d="M13,-265.5C7,-265.5 1,-259.5 1,-253.5"/>
<polyline fill="none" stroke="black" points="1,-253.5 1,-13.5 "/>
<path fill="none" stroke="black" d="M1,-13.5C1,-7.5 7,-1.5 13,-1.5"/>
<text text-anchor="middle" x="84" y="-248.9" font-family="Times Roman,serif" font-size="14.00">UsersController</text>
<polyline fill="none" stroke="black" points="1,-239.5 167,-239.5 "/>
<text text-anchor="start" x="9" y="-222.9" font-family="Times Roman,serif" font-size="14.00">create</text>
<text text-anchor="start" x="9" y="-204.9" font-family="Times Roman,serif" font-size="14.00">edit</text>
<text text-anchor="start" x="9" y="-186.9" font-family="Times Roman,serif" font-size="14.00">get_index_view_type</text>
<text text-anchor="start" x="9" y="-168.9" font-family="Times Roman,serif" font-size="14.00">get_view_type</text>
<text text-anchor="start" x="9" y="-150.9" font-family="Times Roman,serif" font-size="14.00">guide</text>
<text text-anchor="start" x="9" y="-132.9" font-family="Times Roman,serif" font-size="14.00">index</text>
<text text-anchor="start" x="9" y="-114.9" font-family="Times Roman,serif" font-size="14.00">new</text>
<text text-anchor="start" x="9" y="-96.9" font-family="Times Roman,serif" font-size="14.00">show</text>
<text text-anchor="start" x="9" y="-78.9" font-family="Times Roman,serif" font-size="14.00">update</text>
<text text-anchor="start" x="9" y="-60.9" font-family="Times Roman,serif" font-size="14.00">view_types</text>
<polyline fill="none" stroke="black" points="1,-51.5 167,-51.5 "/>
<polyline fill="none" stroke="black" points="1,-27.5 167,-27.5 "/>
<text text-anchor="start" x="9" y="-10.9" font-family="Times Roman,serif" font-size="14.00">_layout</text>
</g>
</g>
</svg>
