<?xml version="1.0" encoding="UTF-8" standalone="no"?>
<!DOCTYPE svg PUBLIC "-//W3C//DTD SVG 1.1//EN"
 "http://www.w3.org/Graphics/SVG/1.1/DTD/svg11.dtd">
<!-- Generated by graphviz version 2.26.3 (20100126.1600)
 -->
<!-- Title: models_diagram Pages: 1 -->
<svg width="402pt" height="176pt"
 viewBox="0.00 0.00 402.00 176.00" xmlns="http://www.w3.org/2000/svg" xmlns:xlink="http://www.w3.org/1999/xlink">
<g id="graph1" class="graph" transform="scale(1 1) rotate(0) translate(4 172)">
<title>models_diagram</title>
<polygon fill="white" stroke="white" points="-4,5 -4,-172 399,-172 399,5 -4,5"/>
<!-- _diagram_info -->
<g id="node1" class="node"><title>_diagram_info</title>
<text text-anchor="start" x="7.5" y="-151.8" font-family="Times Roman,serif" font-size="13.00">Models diagram</text>
<text text-anchor="start" x="7.5" y="-134.8" font-family="Times Roman,serif" font-size="13.00">Date: May 10 2011 &#45; 17:42</text>
<text text-anchor="start" x="7.5" y="-117.8" font-family="Times Roman,serif" font-size="13.00">Migration version: 20110428125630</text>
<text text-anchor="start" x="7.5" y="-100.8" font-family="Times Roman,serif" font-size="13.00">Generated by RailRoady 1.0.2</text>
<text text-anchor="start" x="7.5" y="-83.8" font-family="Times Roman,serif" font-size="13.00">http://railroady.prestonlee.com</text>
</g>
<!-- Like -->
<g id="node2" class="node"><title>Like</title>
<ellipse fill="none" stroke="black" cx="256" cy="-19" rx="31.8198" ry="18.3848"/>
<text text-anchor="middle" x="256" y="-15.4" font-family="Times Roman,serif" font-size="14.00">Like</text>
</g>
<!-- User -->
<g id="node3" class="node"><title>User</title>
<ellipse fill="none" stroke="black" cx="303" cy="-121" rx="34.8574" ry="18.3848"/>
<text text-anchor="middle" x="303" y="-117.4" font-family="Times Roman,serif" font-size="14.00">User</text>
</g>
<!-- User&#45;&gt;Like -->
<g id="edge4" class="edge"><title>User&#45;&gt;Like</title>
<path fill="none" stroke="black" d="M291.19,-95.3707C284.323,-80.4678 275.669,-61.6868 268.662,-46.4788"/>
<ellipse fill="none" stroke="black" cx="292.923" cy="-99.1316" rx="4.00002" ry="4.00002"/>
<polygon fill="black" stroke="black" points="268.515,-46.1599 268.417,-35.1944 266.422,-41.6188 264.33,-37.0777 264.33,-37.0777 264.33,-37.0777 266.422,-41.6188 260.243,-38.9609 268.515,-46.1599 268.515,-46.1599"/>
</g>
<!-- Attach -->
<g id="node5" class="node"><title>Attach</title>
<ellipse fill="none" stroke="black" cx="350" cy="-19" rx="43.8406" ry="18.3848"/>
<text text-anchor="middle" x="350" y="-15.4" font-family="Times Roman,serif" font-size="14.00">Attach</text>
</g>
<!-- User&#45;&gt;Attach -->
<g id="edge2" class="edge"><title>User&#45;&gt;Attach</title>
<path fill="none" stroke="black" d="M314.787,-95.4187C321.608,-80.6161 330.198,-61.9752 337.186,-46.8101"/>
<ellipse fill="none" stroke="black" cx="313.077" cy="-99.1316" rx="4.00002" ry="4.00002"/>
<polygon fill="black" stroke="black" points="337.327,-46.5038 345.599,-39.3048 339.419,-41.9627 341.512,-37.4216 341.512,-37.4216 341.512,-37.4216 339.419,-41.9627 337.425,-35.5383 337.327,-46.5038 337.327,-46.5038"/>
</g>
</g>
</svg>
