<?xml version="1.0" encoding="UTF-8" standalone="no"?>
<!DOCTYPE svg PUBLIC "-//W3C//DTD SVG 1.1//EN"
 "http://www.w3.org/Graphics/SVG/1.1/DTD/svg11.dtd">
<!-- Generated by graphviz version 2.26.3 (20100126.1600)
 -->
<!-- Title: models_diagram Pages: 1 -->
<svg width="526pt" height="456pt"
 viewBox="0.00 0.00 526.00 456.00" xmlns="http://www.w3.org/2000/svg" xmlns:xlink="http://www.w3.org/1999/xlink">
<g id="graph1" class="graph" transform="scale(1 1) rotate(0) translate(4 452)">
<title>models_diagram</title>
<polygon fill="white" stroke="white" points="-4,5 -4,-452 523,-452 523,5 -4,5"/>
<!-- _diagram_info -->
<g id="node1" class="node"><title>_diagram_info</title>
<text text-anchor="start" x="7.5" y="-298.8" font-family="Times Roman,serif" font-size="13.00">Models diagram</text>
<text text-anchor="start" x="7.5" y="-281.8" font-family="Times Roman,serif" font-size="13.00">Date: May 10 2011 &#45; 17:42</text>
<text text-anchor="start" x="7.5" y="-264.8" font-family="Times Roman,serif" font-size="13.00">Migration version: 20110428125630</text>
<text text-anchor="start" x="7.5" y="-247.8" font-family="Times Roman,serif" font-size="13.00">Generated by RailRoady 1.0.2</text>
<text text-anchor="start" x="7.5" y="-230.8" font-family="Times Roman,serif" font-size="13.00">http://railroady.prestonlee.com</text>
</g>
<!-- Like -->
<g id="node2" class="node"><title>Like</title>
<polyline fill="none" stroke="black" points="333,-1 363,-1 "/>
<path fill="none" stroke="black" d="M363,-1C369,-1 375,-7 375,-13"/>
<polyline fill="none" stroke="black" points="375,-13 375,-39 "/>
<path fill="none" stroke="black" d="M375,-39C375,-45 369,-51 363,-51"/>
<polyline fill="none" stroke="black" points="363,-51 333,-51 "/>
<path fill="none" stroke="black" d="M333,-51C327,-51 321,-45 321,-39"/>
<polyline fill="none" stroke="black" points="321,-39 321,-13 "/>
<path fill="none" stroke="black" d="M321,-13C321,-7 327,-1 333,-1"/>
<text text-anchor="middle" x="348" y="-34.4" font-family="Times Roman,serif" font-size="14.00">Like</text>
<polyline fill="none" stroke="black" points="321,-25 375,-25 "/>
</g>
<!-- User -->
<g id="node3" class="node"><title>User</title>
<polyline fill="none" stroke="black" points="279.5,-89 506.5,-89 "/>
<path fill="none" stroke="black" d="M506.5,-89C512.5,-89 518.5,-95 518.5,-101"/>
<polyline fill="none" stroke="black" points="518.5,-101 518.5,-435 "/>
<path fill="none" stroke="black" d="M518.5,-435C518.5,-441 512.5,-447 506.5,-447"/>
<polyline fill="none" stroke="black" points="506.5,-447 279.5,-447 "/>
<path fill="none" stroke="black" d="M279.5,-447C273.5,-447 267.5,-441 267.5,-435"/>
<polyline fill="none" stroke="black" points="267.5,-435 267.5,-101 "/>
<path fill="none" stroke="black" d="M267.5,-101C267.5,-95 273.5,-89 279.5,-89"/>
<text text-anchor="middle" x="393" y="-430.4" font-family="Times Roman,serif" font-size="14.00">User</text>
<polyline fill="none" stroke="black" points="267.5,-421 518.5,-421 "/>
<text text-anchor="start" x="275.5" y="-404.4" font-family="Times Roman,serif" font-size="14.00">email :string</text>
<text text-anchor="start" x="275.5" y="-386.4" font-family="Times Roman,serif" font-size="14.00">encrypted_password :string</text>
<text text-anchor="start" x="275.5" y="-368.4" font-family="Times Roman,serif" font-size="14.00">reset_password_token :string</text>
<text text-anchor="start" x="275.5" y="-350.4" font-family="Times Roman,serif" font-size="14.00">remember_created_at :datetime</text>
<text text-anchor="start" x="275.5" y="-332.4" font-family="Times Roman,serif" font-size="14.00">current_sign_in_at :datetime</text>
<text text-anchor="start" x="275.5" y="-314.4" font-family="Times Roman,serif" font-size="14.00">last_sign_in_at :datetime</text>
<text text-anchor="start" x="275.5" y="-296.4" font-family="Times Roman,serif" font-size="14.00">current_sign_in_ip :string</text>
<text text-anchor="start" x="275.5" y="-278.4" font-family="Times Roman,serif" font-size="14.00">last_sign_in_ip :string</text>
<text text-anchor="start" x="275.5" y="-260.4" font-family="Times Roman,serif" font-size="14.00">confirmation_token :string</text>
<text text-anchor="start" x="275.5" y="-242.4" font-family="Times Roman,serif" font-size="14.00">confirmed_at :datetime</text>
<text text-anchor="start" x="275.5" y="-224.4" font-family="Times Roman,serif" font-size="14.00">confirmation_sent_at :datetime</text>
<text text-anchor="start" x="275.5" y="-206.4" font-family="Times Roman,serif" font-size="14.00">created_at :datetime</text>
<text text-anchor="start" x="275.5" y="-188.4" font-family="Times Roman,serif" font-size="14.00">updated_at :datetime</text>
<text text-anchor="start" x="275.5" y="-170.4" font-family="Times Roman,serif" font-size="14.00">name :string</text>
<text text-anchor="start" x="275.5" y="-152.4" font-family="Times Roman,serif" font-size="14.00">avatar_file_name :string</text>
<text text-anchor="start" x="275.5" y="-134.4" font-family="Times Roman,serif" font-size="14.00">avatar_content_type :string</text>
<text text-anchor="start" x="275.5" y="-116.4" font-family="Times Roman,serif" font-size="14.00">avatar_file_size :integer</text>
<text text-anchor="start" x="275.5" y="-98.4" font-family="Times Roman,serif" font-size="14.00">avatar_updated_at :datetime</text>
</g>
<!-- User&#45;&gt;Like -->
<g id="edge4" class="edge"><title>User&#45;&gt;Like</title>
<path fill="none" stroke="black" d="M358.222,-80.974C356.912,-73.9247 355.681,-67.3064 354.559,-61.2727"/>
<ellipse fill="none" stroke="black" cx="358.974" cy="-85.0183" rx="4.00001" ry="4.00001"/>
<polygon fill="black" stroke="black" points="354.491,-60.9084 357.087,-50.2543 353.577,-55.9927 352.663,-51.077 352.663,-51.077 352.663,-51.077 353.577,-55.9927 348.239,-51.8997 354.491,-60.9084 354.491,-60.9084"/>
</g>
<!-- Attach -->
<g id="node5" class="node"><title>Attach</title>
<ellipse fill="none" stroke="black" cx="437" cy="-26" rx="43.8406" ry="18.3848"/>
<text text-anchor="middle" x="437" y="-22.4" font-family="Times Roman,serif" font-size="14.00">Attach</text>
</g>
<!-- User&#45;&gt;Attach -->
<g id="edge2" class="edge"><title>User&#45;&gt;Attach</title>
<path fill="none" stroke="black" d="M427.032,-80.8224C428.801,-71.0923 430.421,-62.1868 431.816,-54.5114"/>
<ellipse fill="none" stroke="black" cx="426.27" cy="-85.0154" rx="4.00001" ry="4.00001"/>
<polygon fill="black" stroke="black" points="431.843,-54.3606 438.06,-45.3269 432.738,-49.4413 433.632,-44.5219 433.632,-44.5219 433.632,-44.5219 432.738,-49.4413 429.205,-43.7169 431.843,-54.3606 431.843,-54.3606"/>
</g>
</g>
</svg>
